<svg xmlns="http://www.w3.org/2000/svg" xmlns:xlink="http://www.w3.org/1999/xlink" width="500" zoomAndPan="magnify" viewBox="0 0 375 374.999991" height="500" preserveAspectRatio="xMidYMid meet" version="1.0"><defs><g/><clipPath id="0e61783cbb"><path d="M 172 70.445312 L 267 70.445312 L 267 181 L 172 181 Z M 172 70.445312 " clip-rule="nonzero"/></clipPath><clipPath id="3654b9ff2a"><path d="M 148 179 L 175 179 L 175 205.445312 L 148 205.445312 Z M 148 179 " clip-rule="nonzero"/></clipPath></defs><rect x="-37.5" width="450" fill="#ffffff" y="-37.499999" height="449.999989" fill-opacity="1"/><rect x="-37.5" width="450" fill="#ffffff" y="-37.499999" height="449.999989" fill-opacity="1"/><g fill="#000000" fill-opacity="1"><g transform="translate(90.064639, 214.073878)"><g><path d="M 3.796875 3.40625 C 3.160156 3.40625 2.617188 3.3125 2.171875 3.125 C 1.722656 2.9375 1.5 2.675781 1.5 2.34375 C 1.5 2.050781 1.695312 1.757812 2.09375 1.46875 C 2.5 1.1875 3.242188 0.828125 4.328125 0.390625 C 5.410156 -0.0351562 7.019531 -0.597656 9.15625 -1.296875 C 8.75 -2.128906 7.710938 -3.03125 6.046875 -4 C 4.953125 -4.601562 4.046875 -5.253906 3.328125 -5.953125 C 2.609375 -6.648438 2.347656 -7.566406 2.546875 -8.703125 C 2.742188 -9.703125 3.316406 -10.664062 4.265625 -11.59375 C 5.222656 -12.53125 6.375 -13.363281 7.71875 -14.09375 C 9.070312 -14.832031 10.472656 -15.414062 11.921875 -15.84375 C 13.367188 -16.28125 14.675781 -16.5 15.84375 -16.5 C 17.113281 -16.5 18.046875 -16.238281 18.640625 -15.71875 C 19.242188 -15.207031 19.460938 -14.46875 19.296875 -13.5 C 18.992188 -11.800781 17.84375 -10.269531 15.84375 -8.90625 C 15.8125 -8.863281 15.75 -8.84375 15.65625 -8.84375 C 15.445312 -8.84375 15.34375 -8.925781 15.34375 -9.09375 C 15.34375 -9.164062 15.394531 -9.25 15.5 -9.34375 C 17.4375 -10.675781 18.519531 -12.09375 18.75 -13.59375 C 19.019531 -15.164062 18.050781 -15.953125 15.84375 -15.953125 C 14.71875 -15.953125 13.453125 -15.742188 12.046875 -15.328125 C 10.648438 -14.910156 9.304688 -14.347656 8.015625 -13.640625 C 6.734375 -12.941406 5.644531 -12.160156 4.75 -11.296875 C 3.851562 -10.429688 3.320312 -9.53125 3.15625 -8.59375 C 2.988281 -7.664062 3.203125 -6.898438 3.796875 -6.296875 C 4.398438 -5.703125 5.234375 -5.101562 6.296875 -4.5 C 7.203125 -3.96875 7.9375 -3.457031 8.5 -2.96875 C 9.0625 -2.488281 9.460938 -1.984375 9.703125 -1.453125 L 10.90625 -1.84375 L 19.453125 -4.75 C 19.453125 -4.75 19.457031 -4.75 19.46875 -4.75 C 19.488281 -4.75 19.515625 -4.75 19.546875 -4.75 C 19.710938 -4.75 19.796875 -4.648438 19.796875 -4.453125 C 19.796875 -4.316406 19.726562 -4.234375 19.59375 -4.203125 C 17.96875 -3.628906 16.4375 -3.101562 15 -2.625 C 13.5625 -2.144531 12.257812 -1.703125 11.09375 -1.296875 L 9.84375 -0.90625 C 10.113281 -0.269531 9.957031 0.378906 9.375 1.046875 C 8.789062 1.710938 7.988281 2.269531 6.96875 2.71875 C 5.957031 3.175781 4.898438 3.40625 3.796875 3.40625 Z M 3.796875 2.84375 C 4.660156 2.84375 5.523438 2.675781 6.390625 2.34375 C 7.265625 2.007812 7.984375 1.59375 8.546875 1.09375 C 9.117188 0.59375 9.40625 0.09375 9.40625 -0.40625 C 9.40625 -0.53125 9.382812 -0.644531 9.34375 -0.75 C 7.382812 -0.0820312 5.878906 0.445312 4.828125 0.84375 C 3.773438 1.25 3.054688 1.554688 2.671875 1.765625 C 2.285156 1.984375 2.09375 2.175781 2.09375 2.34375 C 2.09375 2.476562 2.25 2.59375 2.5625 2.6875 C 2.882812 2.789062 3.296875 2.84375 3.796875 2.84375 Z M 3.796875 2.84375 "/></g></g></g><g fill="#000000" fill-opacity="1"><g transform="translate(108.111845, 214.073878)"><g><path d="M -3.046875 3 C -3.316406 3 -3.453125 2.863281 -3.453125 2.59375 C -3.453125 2.164062 -3.050781 1.332031 -2.25 0.09375 C -1.445312 -1.132812 -0.378906 -2.597656 0.953125 -4.296875 C 2.285156 -5.992188 3.765625 -7.800781 5.390625 -9.71875 C 7.023438 -11.632812 8.6875 -13.519531 10.375 -15.375 C 12.0625 -17.226562 13.65625 -18.910156 15.15625 -20.421875 C 16.65625 -21.941406 17.945312 -23.148438 19.03125 -24.046875 C 20.113281 -24.953125 20.851562 -25.40625 21.25 -25.40625 C 21.8125 -25.40625 22.09375 -25.117188 22.09375 -24.546875 C 22.09375 -24.046875 21.71875 -23.226562 20.96875 -22.09375 C 20.21875 -20.96875 19.1875 -19.65625 17.875 -18.15625 C 16.5625 -16.65625 15.03125 -15.0625 13.28125 -13.375 C 11.53125 -11.6875 9.632812 -10.023438 7.59375 -8.390625 C 5.5625 -6.765625 3.476562 -5.269531 1.34375 -3.90625 C 0.550781 -2.863281 -0.148438 -1.914062 -0.765625 -1.0625 C -1.390625 -0.21875 -1.882812 0.5 -2.25 1.09375 C -2.445312 1.425781 -2.492188 1.59375 -2.390625 1.59375 C -2.296875 1.59375 -2.132812 1.460938 -1.90625 1.203125 C -1.570312 0.867188 -1.203125 0.507812 -0.796875 0.125 C -0.398438 -0.257812 0.015625 -0.648438 0.453125 -1.046875 C 3.378906 -3.816406 5.34375 -5.203125 6.34375 -5.203125 C 6.8125 -5.203125 7.046875 -4.953125 7.046875 -4.453125 C 7.046875 -4.210938 6.992188 -3.941406 6.890625 -3.640625 C 6.796875 -3.347656 6.679688 -3.050781 6.546875 -2.75 C 6.453125 -2.445312 6.351562 -2.160156 6.25 -1.890625 C 6.144531 -1.628906 6.09375 -1.398438 6.09375 -1.203125 C 6.09375 -0.628906 6.460938 -0.34375 7.203125 -0.34375 C 7.929688 -0.34375 8.882812 -0.5625 10.0625 -1 C 11.25 -1.4375 12.453125 -1.960938 13.671875 -2.578125 C 14.890625 -3.191406 15.929688 -3.78125 16.796875 -4.34375 L 16.953125 -4.34375 C 17.148438 -4.34375 17.25 -4.257812 17.25 -4.09375 C 17.25 -4 17.195312 -3.914062 17.09375 -3.84375 C 16.226562 -3.28125 15.171875 -2.679688 13.921875 -2.046875 C 12.671875 -1.410156 11.4375 -0.867188 10.21875 -0.421875 C 9.007812 0.0234375 8.003906 0.25 7.203125 0.25 C 6.097656 0.25 5.546875 -0.234375 5.546875 -1.203125 C 5.546875 -1.460938 5.59375 -1.75 5.6875 -2.0625 C 5.789062 -2.382812 5.910156 -2.695312 6.046875 -3 C 6.148438 -3.269531 6.25 -3.535156 6.34375 -3.796875 C 6.445312 -4.066406 6.5 -4.285156 6.5 -4.453125 C 6.5 -4.585938 6.445312 -4.65625 6.34375 -4.65625 C 5.507812 -4.65625 3.675781 -3.320312 0.84375 -0.65625 C 0.414062 -0.21875 0.00390625 0.191406 -0.390625 0.578125 C -0.796875 0.960938 -1.164062 1.300781 -1.5 1.59375 C -1.863281 2 -2.1875 2.332031 -2.46875 2.59375 C -2.757812 2.863281 -2.953125 3 -3.046875 3 Z M 2.5 -5.296875 C 4.5 -6.660156 6.441406 -8.125 8.328125 -9.6875 C 10.210938 -11.257812 11.953125 -12.820312 13.546875 -14.375 C 15.148438 -15.925781 16.550781 -17.390625 17.75 -18.765625 C 18.945312 -20.148438 19.878906 -21.351562 20.546875 -22.375 C 21.210938 -23.394531 21.546875 -24.117188 21.546875 -24.546875 C 21.546875 -24.710938 21.445312 -24.796875 21.25 -24.796875 C 20.914062 -24.796875 20.273438 -24.382812 19.328125 -23.5625 C 18.378906 -22.75 17.226562 -21.660156 15.875 -20.296875 C 14.519531 -18.929688 13.0625 -17.398438 11.5 -15.703125 C 9.9375 -14.003906 8.378906 -12.253906 6.828125 -10.453125 C 5.273438 -8.648438 3.832031 -6.929688 2.5 -5.296875 Z M 2.5 -5.296875 "/></g></g></g><g fill="#000000" fill-opacity="1"><g transform="translate(123.909394, 214.073878)"><g><path d="M 6.75 0.046875 C 5.550781 0.046875 4.953125 -0.453125 4.953125 -1.453125 C 4.953125 -1.953125 5.082031 -2.46875 5.34375 -3 C 5.613281 -3.53125 5.898438 -4.015625 6.203125 -4.453125 C 6.265625 -4.515625 6.28125 -4.5625 6.25 -4.59375 C 6.21875 -4.632812 6.164062 -4.617188 6.09375 -4.546875 C 5.863281 -4.410156 5.53125 -4.175781 5.09375 -3.84375 C 4.394531 -3.34375 3.617188 -2.800781 2.765625 -2.21875 C 1.921875 -1.632812 1.113281 -1.125 0.34375 -0.6875 C -0.414062 -0.257812 -1.03125 -0.046875 -1.5 -0.046875 C -2.101562 -0.046875 -2.40625 -0.3125 -2.40625 -0.84375 C -2.40625 -1.28125 -2.171875 -1.753906 -1.703125 -2.265625 C -1.234375 -2.785156 -0.648438 -3.28125 0.046875 -3.75 C 0.742188 -4.21875 1.4375 -4.597656 2.125 -4.890625 C 2.8125 -5.191406 3.367188 -5.34375 3.796875 -5.34375 C 4.460938 -5.34375 4.929688 -5.09375 5.203125 -4.59375 C 6.265625 -5.394531 6.894531 -5.796875 7.09375 -5.796875 C 7.332031 -5.796875 7.453125 -5.679688 7.453125 -5.453125 C 7.453125 -5.316406 7.269531 -4.984375 6.90625 -4.453125 C 6.601562 -4.015625 6.289062 -3.519531 5.96875 -2.96875 C 5.65625 -2.425781 5.5 -1.921875 5.5 -1.453125 C 5.5 -0.847656 5.914062 -0.546875 6.75 -0.546875 C 7.28125 -0.546875 8.0625 -0.710938 9.09375 -1.046875 C 10.132812 -1.378906 11.238281 -1.828125 12.40625 -2.390625 C 13.570312 -2.960938 14.617188 -3.597656 15.546875 -4.296875 C 15.578125 -4.328125 15.644531 -4.34375 15.75 -4.34375 C 15.914062 -4.34375 16 -4.257812 16 -4.09375 C 16 -4 15.96875 -3.914062 15.90625 -3.84375 C 14.96875 -3.175781 13.898438 -2.539062 12.703125 -1.9375 C 11.503906 -1.34375 10.363281 -0.863281 9.28125 -0.5 C 8.195312 -0.132812 7.351562 0.046875 6.75 0.046875 Z M -1.5 -0.65625 C -1.101562 -0.65625 -0.546875 -0.851562 0.171875 -1.25 C 0.890625 -1.644531 1.65625 -2.125 2.46875 -2.6875 C 3.289062 -3.257812 4.035156 -3.796875 4.703125 -4.296875 C 4.535156 -4.628906 4.234375 -4.796875 3.796875 -4.796875 C 3.367188 -4.796875 2.835938 -4.65625 2.203125 -4.375 C 1.566406 -4.09375 0.941406 -3.722656 0.328125 -3.265625 C -0.285156 -2.816406 -0.800781 -2.375 -1.21875 -1.9375 C -1.632812 -1.507812 -1.84375 -1.144531 -1.84375 -0.84375 C -1.84375 -0.71875 -1.726562 -0.65625 -1.5 -0.65625 Z M -1.5 -0.65625 "/></g></g></g><g fill="#000000" fill-opacity="1"><g transform="translate(138.507133, 214.073878)"><g><path d="M -1.40625 0 C -1.738281 0 -1.867188 -0.179688 -1.796875 -0.546875 C -1.765625 -0.710938 -1.554688 -1.070312 -1.171875 -1.625 C -0.785156 -2.175781 -0.296875 -2.804688 0.296875 -3.515625 C 0.898438 -4.234375 1.554688 -4.96875 2.265625 -5.71875 C 2.984375 -6.46875 3.710938 -7.113281 4.453125 -7.65625 C 4.484375 -7.6875 4.550781 -7.703125 4.65625 -7.703125 C 4.820312 -7.703125 4.90625 -7.617188 4.90625 -7.453125 C 4.90625 -7.347656 4.867188 -7.265625 4.796875 -7.203125 C 3.796875 -6.460938 2.8125 -5.539062 1.84375 -4.4375 C 0.882812 -3.34375 0.117188 -2.414062 -0.453125 -1.65625 C -0.484375 -1.582031 -0.488281 -1.507812 -0.46875 -1.4375 C -0.457031 -1.375 -0.382812 -1.378906 -0.25 -1.453125 C 3.613281 -4.253906 6.144531 -5.65625 7.34375 -5.65625 C 7.882812 -5.65625 8.15625 -5.421875 8.15625 -4.953125 C 8.15625 -4.710938 8.113281 -4.410156 8.03125 -4.046875 C 7.945312 -3.679688 7.867188 -3.316406 7.796875 -2.953125 C 7.597656 -2.316406 7.5 -1.832031 7.5 -1.5 C 7.5 -1.226562 7.679688 -1.09375 8.046875 -1.09375 C 8.878906 -1.09375 9.992188 -1.382812 11.390625 -1.96875 C 12.796875 -2.550781 14.25 -3.34375 15.75 -4.34375 L 15.90625 -4.34375 C 16.101562 -4.34375 16.203125 -4.257812 16.203125 -4.09375 C 16.203125 -4 16.148438 -3.914062 16.046875 -3.84375 C 14.515625 -2.84375 13.023438 -2.039062 11.578125 -1.4375 C 10.128906 -0.84375 8.953125 -0.546875 8.046875 -0.546875 C 7.285156 -0.546875 6.90625 -0.863281 6.90625 -1.5 C 6.90625 -1.664062 6.9375 -1.890625 7 -2.171875 C 7.0625 -2.453125 7.128906 -2.757812 7.203125 -3.09375 C 7.296875 -3.46875 7.382812 -3.820312 7.46875 -4.15625 C 7.550781 -4.488281 7.59375 -4.71875 7.59375 -4.84375 C 7.59375 -5.007812 7.507812 -5.09375 7.34375 -5.09375 C 6.8125 -5.09375 6.078125 -4.832031 5.140625 -4.3125 C 4.210938 -3.800781 3.265625 -3.203125 2.296875 -2.515625 C 1.328125 -1.835938 0.507812 -1.265625 -0.15625 -0.796875 C -0.445312 -0.597656 -0.703125 -0.414062 -0.921875 -0.25 C -1.140625 -0.0820312 -1.300781 0 -1.40625 0 Z M -1.40625 0 "/></g></g></g><g fill="#000000" fill-opacity="1"><g transform="translate(153.254847, 214.073878)"><g><path d="M 3.59375 -6.453125 C 3.394531 -6.453125 3.296875 -6.535156 3.296875 -6.703125 C 3.296875 -6.796875 3.3125 -6.863281 3.34375 -6.90625 L 3.546875 -7.09375 C 3.617188 -7.195312 3.703125 -7.316406 3.796875 -7.453125 C 3.898438 -7.585938 3.96875 -7.6875 4 -7.75 C 4.0625 -7.8125 4.144531 -7.84375 4.25 -7.84375 C 4.414062 -7.84375 4.5 -7.742188 4.5 -7.546875 C 4.5 -7.453125 4.484375 -7.382812 4.453125 -7.34375 C 4.316406 -7.21875 4.164062 -7.019531 4 -6.75 L 3.796875 -6.546875 C 3.765625 -6.484375 3.695312 -6.453125 3.59375 -6.453125 Z M 0.40625 0.296875 C -0.5 0.296875 -0.953125 -0.132812 -0.953125 -1 C -0.953125 -1.46875 -0.675781 -2.109375 -0.125 -2.921875 C 0.425781 -3.742188 1.164062 -4.617188 2.09375 -5.546875 C 2.132812 -5.578125 2.203125 -5.59375 2.296875 -5.59375 C 2.492188 -5.59375 2.59375 -5.507812 2.59375 -5.34375 C 2.59375 -5.28125 2.5625 -5.21875 2.5 -5.15625 C 1.664062 -4.28125 0.972656 -3.457031 0.421875 -2.6875 C -0.128906 -1.925781 -0.40625 -1.363281 -0.40625 -1 C -0.40625 -0.53125 -0.132812 -0.296875 0.40625 -0.296875 C 0.800781 -0.296875 1.375 -0.421875 2.125 -0.671875 C 2.875 -0.921875 3.710938 -1.253906 4.640625 -1.671875 C 5.578125 -2.085938 6.492188 -2.53125 7.390625 -3 C 8.296875 -3.46875 9.066406 -3.914062 9.703125 -4.34375 L 9.84375 -4.34375 C 10.050781 -4.34375 10.15625 -4.257812 10.15625 -4.09375 C 10.15625 -4 10.117188 -3.914062 10.046875 -3.84375 C 9.378906 -3.414062 8.585938 -2.957031 7.671875 -2.46875 C 6.753906 -1.988281 5.8125 -1.539062 4.84375 -1.125 C 3.882812 -0.707031 3.007812 -0.363281 2.21875 -0.09375 C 1.4375 0.164062 0.832031 0.296875 0.40625 0.296875 Z M 0.40625 0.296875 "/></g></g></g><g fill="#000000" fill-opacity="1"><g transform="translate(162.003489, 214.073878)"><g/></g></g><g fill="#000000" fill-opacity="1"><g transform="translate(173.051774, 214.073878)"><g><path d="M 1.703125 3.453125 C 1.460938 3.515625 1.3125 3.445312 1.25 3.25 C 1.21875 3.1875 1.207031 3.085938 1.21875 2.953125 C 1.238281 2.816406 1.265625 2.679688 1.296875 2.546875 C 1.398438 2.015625 1.71875 1.273438 2.25 0.328125 C 2.78125 -0.617188 3.597656 -1.84375 4.703125 -3.34375 C 3.796875 -3.71875 3.160156 -4.203125 2.796875 -4.796875 L 2.796875 -4.953125 C 2.796875 -5.117188 2.878906 -5.203125 3.046875 -5.203125 C 3.210938 -5.203125 3.3125 -5.148438 3.34375 -5.046875 C 3.613281 -4.546875 4.179688 -4.144531 5.046875 -3.84375 C 6.179688 -5.34375 7.460938 -6.882812 8.890625 -8.46875 C 10.328125 -10.050781 11.726562 -11.410156 13.09375 -12.546875 C 13.164062 -12.617188 13.21875 -12.65625 13.25 -12.65625 C 13.445312 -12.65625 13.546875 -12.550781 13.546875 -12.34375 C 13.546875 -12.28125 13.515625 -12.21875 13.453125 -12.15625 C 12.117188 -11.019531 10.75 -9.679688 9.34375 -8.140625 C 7.945312 -6.609375 6.71875 -5.113281 5.65625 -3.65625 C 6.320312 -3.488281 7.003906 -3.40625 7.703125 -3.40625 C 9.535156 -3.40625 11.285156 -3.71875 12.953125 -4.34375 C 14.617188 -4.976562 16.097656 -5.800781 17.390625 -6.8125 C 18.691406 -7.832031 19.71875 -8.9375 20.46875 -10.125 C 21.21875 -11.3125 21.59375 -12.453125 21.59375 -13.546875 C 21.59375 -15.515625 20.242188 -16.5 17.546875 -16.5 C 15.847656 -16.5 14.046875 -16.15625 12.140625 -15.46875 C 10.242188 -14.789062 8.460938 -13.882812 6.796875 -12.75 C 5.128906 -11.613281 3.8125 -10.363281 2.84375 -9 C 2.8125 -8.894531 2.726562 -8.84375 2.59375 -8.84375 C 2.425781 -8.84375 2.34375 -8.945312 2.34375 -9.15625 C 2.34375 -9.21875 2.363281 -9.265625 2.40625 -9.296875 C 3.40625 -10.734375 4.753906 -12.035156 6.453125 -13.203125 C 8.148438 -14.367188 9.988281 -15.304688 11.96875 -16.015625 C 13.957031 -16.734375 15.816406 -17.09375 17.546875 -17.09375 C 19.015625 -17.09375 20.15625 -16.785156 20.96875 -16.171875 C 21.789062 -15.554688 22.203125 -14.679688 22.203125 -13.546875 C 22.203125 -12.378906 21.804688 -11.171875 21.015625 -9.921875 C 20.234375 -8.671875 19.160156 -7.503906 17.796875 -6.421875 C 16.429688 -5.335938 14.878906 -4.460938 13.140625 -3.796875 C 11.410156 -3.128906 9.597656 -2.796875 7.703125 -2.796875 C 7.265625 -2.796875 6.835938 -2.828125 6.421875 -2.890625 C 6.003906 -2.960938 5.613281 -3.050781 5.25 -3.15625 C 4.28125 -1.820312 3.546875 -0.75 3.046875 0.0625 C 2.546875 0.882812 2.195312 1.5625 2 2.09375 C 2.101562 2.132812 2.15625 2.238281 2.15625 2.40625 C 2.113281 2.632812 2.050781 2.847656 1.96875 3.046875 C 1.882812 3.242188 1.796875 3.378906 1.703125 3.453125 Z M 1.703125 3.453125 "/></g></g></g><g fill="#000000" fill-opacity="1"><g transform="translate(190.299107, 214.073878)"><g><path d="M 3.59375 -6.453125 C 3.394531 -6.453125 3.296875 -6.535156 3.296875 -6.703125 C 3.296875 -6.796875 3.3125 -6.863281 3.34375 -6.90625 L 3.546875 -7.09375 C 3.617188 -7.195312 3.703125 -7.316406 3.796875 -7.453125 C 3.898438 -7.585938 3.96875 -7.6875 4 -7.75 C 4.0625 -7.8125 4.144531 -7.84375 4.25 -7.84375 C 4.414062 -7.84375 4.5 -7.742188 4.5 -7.546875 C 4.5 -7.453125 4.484375 -7.382812 4.453125 -7.34375 C 4.316406 -7.21875 4.164062 -7.019531 4 -6.75 L 3.796875 -6.546875 C 3.765625 -6.484375 3.695312 -6.453125 3.59375 -6.453125 Z M 0.40625 0.296875 C -0.5 0.296875 -0.953125 -0.132812 -0.953125 -1 C -0.953125 -1.46875 -0.675781 -2.109375 -0.125 -2.921875 C 0.425781 -3.742188 1.164062 -4.617188 2.09375 -5.546875 C 2.132812 -5.578125 2.203125 -5.59375 2.296875 -5.59375 C 2.492188 -5.59375 2.59375 -5.507812 2.59375 -5.34375 C 2.59375 -5.28125 2.5625 -5.21875 2.5 -5.15625 C 1.664062 -4.28125 0.972656 -3.457031 0.421875 -2.6875 C -0.128906 -1.925781 -0.40625 -1.363281 -0.40625 -1 C -0.40625 -0.53125 -0.132812 -0.296875 0.40625 -0.296875 C 0.800781 -0.296875 1.375 -0.421875 2.125 -0.671875 C 2.875 -0.921875 3.710938 -1.253906 4.640625 -1.671875 C 5.578125 -2.085938 6.492188 -2.53125 7.390625 -3 C 8.296875 -3.46875 9.066406 -3.914062 9.703125 -4.34375 L 9.84375 -4.34375 C 10.050781 -4.34375 10.15625 -4.257812 10.15625 -4.09375 C 10.15625 -4 10.117188 -3.914062 10.046875 -3.84375 C 9.378906 -3.414062 8.585938 -2.957031 7.671875 -2.46875 C 6.753906 -1.988281 5.8125 -1.539062 4.84375 -1.125 C 3.882812 -0.707031 3.007812 -0.363281 2.21875 -0.09375 C 1.4375 0.164062 0.832031 0.296875 0.40625 0.296875 Z M 0.40625 0.296875 "/></g></g></g><g fill="#000000" fill-opacity="1"><g transform="translate(199.047748, 214.073878)"><g><path d="M -10.546875 12.703125 C -10.847656 12.703125 -10.945312 12.535156 -10.84375 12.203125 L -10.796875 12.15625 C -10.765625 12.082031 -10.738281 12.019531 -10.71875 11.96875 C -10.707031 11.925781 -10.6875 11.882812 -10.65625 11.84375 C -8.25 8.082031 -5.570312 4.265625 -2.625 0.390625 C 0.320312 -3.472656 3.363281 -7.253906 6.5 -10.953125 C 4.363281 -10.847656 2.269531 -10.710938 0.21875 -10.546875 C -1.820312 -10.378906 -3.78125 -10.164062 -5.65625 -9.90625 L -5.703125 -9.90625 C -5.898438 -9.90625 -6 -10.003906 -6 -10.203125 C -6 -10.335938 -5.914062 -10.4375 -5.75 -10.5 C -3.78125 -10.769531 -1.722656 -10.988281 0.421875 -11.15625 C 2.578125 -11.320312 4.769531 -11.4375 7 -11.5 C 8.394531 -13.164062 9.800781 -14.789062 11.21875 -16.375 C 12.632812 -17.957031 14.046875 -19.515625 15.453125 -21.046875 C 15.515625 -21.117188 15.582031 -21.15625 15.65625 -21.15625 C 15.851562 -21.15625 15.953125 -21.050781 15.953125 -20.84375 C 15.953125 -20.75 15.9375 -20.6875 15.90625 -20.65625 C 14.570312 -19.21875 13.226562 -17.734375 11.875 -16.203125 C 10.519531 -14.671875 9.160156 -13.117188 7.796875 -11.546875 C 11.992188 -11.710938 16.175781 -11.710938 20.34375 -11.546875 C 20.507812 -11.546875 20.59375 -11.445312 20.59375 -11.25 C 20.59375 -11.082031 20.492188 -11 20.296875 -11 C 18.160156 -11.0625 15.992188 -11.09375 13.796875 -11.09375 C 11.597656 -11.09375 9.414062 -11.046875 7.25 -10.953125 C 4.144531 -7.316406 1.128906 -3.59375 -1.796875 0.21875 C -4.734375 4.039062 -7.382812 7.816406 -9.75 11.546875 C -9.613281 11.617188 -9.613281 11.738281 -9.75 11.90625 C -9.882812 12.101562 -10.015625 12.285156 -10.140625 12.453125 C -10.273438 12.617188 -10.410156 12.703125 -10.546875 12.703125 Z M -10.546875 12.703125 "/></g></g></g><g fill="#000000" fill-opacity="1"><g transform="translate(206.496593, 214.073878)"><g><path d="M 6.75 0.046875 C 5.550781 0.046875 4.953125 -0.453125 4.953125 -1.453125 C 4.953125 -1.953125 5.082031 -2.46875 5.34375 -3 C 5.613281 -3.53125 5.898438 -4.015625 6.203125 -4.453125 C 6.265625 -4.515625 6.28125 -4.5625 6.25 -4.59375 C 6.21875 -4.632812 6.164062 -4.617188 6.09375 -4.546875 C 5.863281 -4.410156 5.53125 -4.175781 5.09375 -3.84375 C 4.394531 -3.34375 3.617188 -2.800781 2.765625 -2.21875 C 1.921875 -1.632812 1.113281 -1.125 0.34375 -0.6875 C -0.414062 -0.257812 -1.03125 -0.046875 -1.5 -0.046875 C -2.101562 -0.046875 -2.40625 -0.3125 -2.40625 -0.84375 C -2.40625 -1.28125 -2.171875 -1.753906 -1.703125 -2.265625 C -1.234375 -2.785156 -0.648438 -3.28125 0.046875 -3.75 C 0.742188 -4.21875 1.4375 -4.597656 2.125 -4.890625 C 2.8125 -5.191406 3.367188 -5.34375 3.796875 -5.34375 C 4.460938 -5.34375 4.929688 -5.09375 5.203125 -4.59375 C 6.265625 -5.394531 6.894531 -5.796875 7.09375 -5.796875 C 7.332031 -5.796875 7.453125 -5.679688 7.453125 -5.453125 C 7.453125 -5.316406 7.269531 -4.984375 6.90625 -4.453125 C 6.601562 -4.015625 6.289062 -3.519531 5.96875 -2.96875 C 5.65625 -2.425781 5.5 -1.921875 5.5 -1.453125 C 5.5 -0.847656 5.914062 -0.546875 6.75 -0.546875 C 7.28125 -0.546875 8.0625 -0.710938 9.09375 -1.046875 C 10.132812 -1.378906 11.238281 -1.828125 12.40625 -2.390625 C 13.570312 -2.960938 14.617188 -3.597656 15.546875 -4.296875 C 15.578125 -4.328125 15.644531 -4.34375 15.75 -4.34375 C 15.914062 -4.34375 16 -4.257812 16 -4.09375 C 16 -4 15.96875 -3.914062 15.90625 -3.84375 C 14.96875 -3.175781 13.898438 -2.539062 12.703125 -1.9375 C 11.503906 -1.34375 10.363281 -0.863281 9.28125 -0.5 C 8.195312 -0.132812 7.351562 0.046875 6.75 0.046875 Z M -1.5 -0.65625 C -1.101562 -0.65625 -0.546875 -0.851562 0.171875 -1.25 C 0.890625 -1.644531 1.65625 -2.125 2.46875 -2.6875 C 3.289062 -3.257812 4.035156 -3.796875 4.703125 -4.296875 C 4.535156 -4.628906 4.234375 -4.796875 3.796875 -4.796875 C 3.367188 -4.796875 2.835938 -4.65625 2.203125 -4.375 C 1.566406 -4.09375 0.941406 -3.722656 0.328125 -3.265625 C -0.285156 -2.816406 -0.800781 -2.375 -1.21875 -1.9375 C -1.632812 -1.507812 -1.84375 -1.144531 -1.84375 -0.84375 C -1.84375 -0.71875 -1.726562 -0.65625 -1.5 -0.65625 Z M -1.5 -0.65625 "/></g></g></g><g fill="#000000" fill-opacity="1"><g transform="translate(221.094332, 214.073878)"><g><path d="M 0.65625 5.40625 C -0.25 5.40625 -0.703125 4.96875 -0.703125 4.09375 C -0.703125 3.53125 -0.445312 2.875 0.0625 2.125 C 0.582031 1.375 1.242188 0.59375 2.046875 -0.21875 C 2.847656 -1.039062 3.648438 -1.867188 4.453125 -2.703125 C 5.515625 -3.765625 6.460938 -4.742188 7.296875 -5.640625 C 8.128906 -6.546875 8.546875 -7.234375 8.546875 -7.703125 C 8.546875 -8.003906 8.097656 -8.46875 7.203125 -9.09375 C 6.265625 -8.132812 5.269531 -7.1875 4.21875 -6.25 C 3.175781 -5.3125 2.203125 -4.507812 1.296875 -3.84375 C 1.265625 -3.8125 1.195312 -3.796875 1.09375 -3.796875 C 0.925781 -3.796875 0.84375 -3.894531 0.84375 -4.09375 C 0.84375 -4.164062 0.878906 -4.234375 0.953125 -4.296875 C 1.953125 -5.035156 2.953125 -5.851562 3.953125 -6.75 C 4.953125 -7.644531 5.867188 -8.53125 6.703125 -9.40625 C 6.265625 -9.695312 5.921875 -9.941406 5.671875 -10.140625 C 5.421875 -10.347656 5.296875 -10.566406 5.296875 -10.796875 C 5.296875 -11.097656 5.476562 -11.472656 5.84375 -11.921875 C 6.21875 -12.367188 6.675781 -12.800781 7.21875 -13.21875 C 7.769531 -13.632812 8.328125 -13.984375 8.890625 -14.265625 C 9.460938 -14.554688 9.945312 -14.703125 10.34375 -14.703125 C 10.71875 -14.703125 10.90625 -14.5 10.90625 -14.09375 C 10.90625 -13.757812 10.59375 -13.164062 9.96875 -12.3125 C 9.351562 -11.46875 8.5625 -10.53125 7.59375 -9.5 C 8.03125 -9.101562 8.398438 -8.78125 8.703125 -8.53125 C 9.003906 -8.28125 9.15625 -8.003906 9.15625 -7.703125 C 9.15625 -7.097656 8.703125 -6.300781 7.796875 -5.3125 C 6.898438 -4.332031 5.914062 -3.3125 4.84375 -2.25 C 4.050781 -1.445312 3.269531 -0.65625 2.5 0.125 C 1.726562 0.90625 1.09375 1.632812 0.59375 2.3125 C 0.09375 3 -0.15625 3.59375 -0.15625 4.09375 C -0.15625 4.5625 0.113281 4.796875 0.65625 4.796875 C 1.351562 4.796875 2.359375 4.492188 3.671875 3.890625 C 4.992188 3.296875 6.445312 2.53125 8.03125 1.59375 C 9.613281 0.664062 11.195312 -0.320312 12.78125 -1.375 C 14.363281 -2.425781 15.769531 -3.398438 17 -4.296875 C 17.03125 -4.328125 17.082031 -4.34375 17.15625 -4.34375 C 17.351562 -4.34375 17.453125 -4.257812 17.453125 -4.09375 C 17.453125 -4 17.414062 -3.914062 17.34375 -3.84375 C 16.113281 -2.945312 14.695312 -1.960938 13.09375 -0.890625 C 11.5 0.171875 9.882812 1.175781 8.25 2.125 C 6.613281 3.070312 5.128906 3.851562 3.796875 4.46875 C 2.460938 5.09375 1.414062 5.40625 0.65625 5.40625 Z M 7.09375 -9.796875 C 7.46875 -10.160156 7.878906 -10.609375 8.328125 -11.140625 C 8.773438 -11.679688 9.191406 -12.203125 9.578125 -12.703125 C 9.960938 -13.203125 10.203125 -13.582031 10.296875 -13.84375 C 10.367188 -14.050781 10.300781 -14.117188 10.09375 -14.046875 C 9.664062 -13.984375 9.117188 -13.734375 8.453125 -13.296875 C 7.785156 -12.867188 7.191406 -12.421875 6.671875 -11.953125 C 6.160156 -11.484375 5.90625 -11.097656 5.90625 -10.796875 C 5.90625 -10.765625 5.992188 -10.664062 6.171875 -10.5 C 6.359375 -10.332031 6.664062 -10.097656 7.09375 -9.796875 Z M 7.09375 -9.796875 "/></g></g></g><g fill="#000000" fill-opacity="1"><g transform="translate(237.141844, 214.073878)"><g><path d="M 5.90625 0 C 4.695312 0 4.09375 -0.5 4.09375 -1.5 C 4.09375 -1.800781 4.160156 -2.109375 4.296875 -2.421875 C 4.429688 -2.742188 4.597656 -3.070312 4.796875 -3.40625 C 4.960938 -3.664062 5.046875 -3.8125 5.046875 -3.84375 C 5.046875 -3.882812 4.894531 -3.785156 4.59375 -3.546875 C 3.257812 -2.453125 2.203125 -1.65625 1.421875 -1.15625 C 0.640625 -0.65625 0.0507812 -0.40625 -0.34375 -0.40625 C -0.84375 -0.40625 -1.09375 -0.65625 -1.09375 -1.15625 C -1.09375 -2.050781 -0.128906 -3.363281 1.796875 -5.09375 C 1.867188 -5.164062 1.9375 -5.203125 2 -5.203125 C 2.195312 -5.203125 2.296875 -5.101562 2.296875 -4.90625 C 2.296875 -4.832031 2.265625 -4.765625 2.203125 -4.703125 C 0.398438 -3.097656 -0.5 -1.929688 -0.5 -1.203125 C -0.5 -1.035156 -0.445312 -0.953125 -0.34375 -0.953125 C 0.1875 -0.953125 1.71875 -1.96875 4.25 -4 C 5.78125 -5.226562 6.628906 -5.84375 6.796875 -5.84375 C 7.160156 -5.84375 7.269531 -5.707031 7.125 -5.4375 C 6.976562 -5.175781 6.769531 -4.878906 6.5 -4.546875 C 6.132812 -4.117188 5.734375 -3.617188 5.296875 -3.046875 C 4.867188 -2.484375 4.65625 -1.96875 4.65625 -1.5 C 4.65625 -0.863281 5.070312 -0.546875 5.90625 -0.546875 C 6.4375 -0.546875 7.222656 -0.738281 8.265625 -1.125 C 9.316406 -1.507812 10.4375 -1.992188 11.625 -2.578125 C 12.8125 -3.160156 13.835938 -3.75 14.703125 -4.34375 C 14.734375 -4.382812 14.800781 -4.40625 14.90625 -4.40625 C 15.070312 -4.40625 15.15625 -4.300781 15.15625 -4.09375 C 15.15625 -4.03125 15.117188 -3.96875 15.046875 -3.90625 C 14.210938 -3.300781 13.1875 -2.695312 11.96875 -2.09375 C 10.757812 -1.5 9.59375 -1 8.46875 -0.59375 C 7.351562 -0.195312 6.5 0 5.90625 0 Z M 5.90625 0 "/></g></g></g><path fill="#000000" d="M 183.1875 155.769531 C 183.53125 158.035156 184.472656 160.191406 185.523438 161.820312 C 187.164062 164.355469 191.644531 168.148438 194.472656 168.183594 C 195.257812 168.207031 195.753906 167.929688 196.128906 167.382812 C 197.117188 165.9375 192.59375 160.316406 189.589844 158.1875 C 187.183594 156.484375 185.375 155.480469 183.683594 155.667969 C 183.5 155.691406 183.335938 155.726562 183.1875 155.769531 Z M 173.433594 180.386719 C 173.082031 180.386719 172.792969 180.109375 172.773438 179.757812 C 172.390625 171.585938 175.089844 163.226562 180.1875 156.824219 L 180.511719 156.40625 C 180.914062 155.882812 181.289062 155.398438 181.78125 155.027344 C 181.65625 153.527344 181.789062 151.992188 182.28125 150.523438 C 182.953125 148.539062 184.160156 146.847656 185.558594 145.003906 C 192.394531 135.945312 200.296875 127.535156 207.9375 119.398438 C 214.03125 112.914062 220.332031 106.207031 226.148438 99.128906 C 226.382812 98.847656 226.792969 98.804688 227.078125 99.039062 C 227.359375 99.269531 227.398438 99.683594 227.167969 99.964844 C 221.320312 107.078125 215.007812 113.800781 208.898438 120.300781 C 201.28125 128.410156 193.402344 136.796875 186.605469 145.796875 C 185.285156 147.550781 184.140625 149.144531 183.535156 150.945312 C 183.148438 152.082031 183.011719 153.265625 183.058594 154.441406 C 183.207031 154.40625 183.359375 154.378906 183.523438 154.359375 C 185.625 154.105469 187.6875 155.222656 190.351562 157.113281 C 192.84375 158.878906 199.070312 165.40625 197.214844 168.128906 C 196.59375 169.042969 195.625 169.523438 194.457031 169.5 C 191.046875 169.457031 186.234375 165.347656 184.414062 162.535156 C 183.382812 160.933594 182.449219 158.859375 182.007812 156.640625 C 181.863281 156.808594 181.71875 156.996094 181.558594 157.207031 L 181.214844 157.644531 C 176.316406 163.800781 173.71875 171.835938 174.089844 179.695312 C 174.105469 180.058594 173.824219 180.367188 173.464844 180.382812 C 173.453125 180.386719 173.441406 180.386719 173.433594 180.386719 " fill-opacity="1" fill-rule="nonzero"/><g clip-path="url(#0e61783cbb)"><path fill="#000000" d="M 242.0625 80.480469 C 242.0625 80.492188 242.0625 80.511719 242.054688 80.546875 C 242.074219 80.523438 242.09375 80.503906 242.117188 80.480469 C 242.09375 80.480469 242.082031 80.484375 242.0625 80.480469 Z M 242.492188 82.011719 C 243.390625 83.640625 244.726562 85.035156 246.023438 86.382812 C 246.417969 86.789062 246.808594 87.199219 247.1875 87.609375 C 248.753906 89.3125 251.105469 91.542969 253.460938 92.550781 C 253.328125 92.144531 253.175781 91.730469 252.996094 91.308594 C 251.875 88.671875 250.058594 86.261719 247.597656 84.140625 C 246.46875 83.164062 245.0625 81.953125 243.550781 81.152344 L 243.382812 81.058594 C 243.082031 81.375 242.789062 81.691406 242.492188 82.011719 Z M 254.964844 93.011719 C 256.136719 93.21875 257.265625 93.019531 258.253906 92.1875 C 261.851562 89.167969 263.953125 86.34375 264.867188 83.300781 C 265.832031 80.089844 265.210938 75.710938 262.167969 73.554688 C 260.207031 72.164062 257.394531 71.824219 254.628906 72.652344 C 251.742188 73.519531 249.292969 75.480469 247.699219 76.878906 C 246.53125 77.898438 245.417969 78.96875 244.332031 80.078125 C 245.910156 80.945312 247.320312 82.15625 248.457031 83.140625 C 251.074219 85.394531 253.007812 87.96875 254.210938 90.796875 C 254.53125 91.554688 254.78125 92.296875 254.964844 93.011719 Z M 239.007812 91.125 C 238.964844 91.125 238.933594 91.132812 238.917969 91.148438 C 238.859375 91.199219 238.835938 91.460938 238.976562 91.855469 C 239.746094 94.035156 242.167969 96.027344 243.542969 97.019531 C 244.386719 97.628906 245.152344 98.132812 245.855469 98.542969 C 244.417969 95.554688 242.035156 92.871094 239.714844 91.40625 C 239.390625 91.199219 239.140625 91.125 239.007812 91.125 Z M 173.148438 180.175781 C 172.824219 180.175781 172.539062 179.9375 172.496094 179.609375 C 172.445312 179.246094 172.699219 178.914062 173.058594 178.863281 C 178.640625 178.097656 183.984375 175.914062 188.503906 172.550781 C 192.457031 169.609375 195.761719 165.78125 198.957031 162.082031 L 231.152344 124.777344 C 232.789062 122.878906 234.625 121 236.574219 119.015625 C 240.117188 115.390625 243.78125 111.648438 246.160156 107.765625 C 247.480469 105.605469 247.449219 102.996094 246.628906 100.460938 C 245.457031 99.890625 244.175781 99.105469 242.773438 98.089844 C 241.269531 97.003906 238.621094 94.8125 237.734375 92.292969 C 237.410156 91.382812 237.53125 90.601562 238.058594 90.148438 C 238.398438 89.855469 239.15625 89.492188 240.417969 90.289062 C 243.359375 92.148438 246.3125 95.679688 247.703125 99.5 C 249.695312 100.367188 250.949219 100.339844 251.710938 100.054688 C 252.722656 99.683594 253.402344 98.726562 253.792969 97.136719 C 254.023438 96.207031 254.039062 95.1875 253.847656 94.085938 C 251.558594 93.378906 248.976562 91.503906 246.21875 88.503906 C 245.84375 88.097656 245.457031 87.695312 245.074219 87.292969 C 243.8125 85.988281 242.519531 84.640625 241.558594 83.035156 C 240.289062 84.441406 239.027344 85.894531 237.738281 87.378906 C 235.894531 89.511719 233.984375 91.714844 231.96875 93.847656 C 231.722656 94.109375 231.304688 94.125 231.039062 93.875 C 230.773438 93.625 230.761719 93.207031 231.011719 92.941406 C 233.007812 90.832031 234.90625 88.636719 236.742188 86.515625 C 238.152344 84.894531 239.523438 83.308594 240.914062 81.777344 C 240.789062 81.4375 240.695312 81.050781 240.71875 80.640625 C 240.769531 79.835938 241.132812 79.476562 241.429688 79.316406 C 241.953125 79.035156 242.558594 79.1875 243.117188 79.433594 C 244.308594 78.203125 245.539062 77.019531 246.828125 75.886719 C 248.515625 74.40625 251.117188 72.332031 254.25 71.390625 C 257.394531 70.445312 260.636719 70.851562 262.929688 72.476562 C 266.117188 74.734375 267.433594 79.34375 266.128906 83.679688 C 265.140625 86.980469 262.90625 90.007812 259.105469 93.195312 C 257.984375 94.136719 256.671875 94.527344 255.222656 94.375 C 255.359375 95.464844 255.308594 96.492188 255.074219 97.449219 C 254.578125 99.472656 253.601562 100.765625 252.167969 101.292969 C 251.0625 101.695312 249.746094 101.640625 248.195312 101.113281 C 248.800781 103.652344 248.644531 106.230469 247.28125 108.453125 C 244.828125 112.460938 241.113281 116.261719 237.515625 119.933594 C 235.585938 121.910156 233.757812 123.769531 232.148438 125.636719 L 199.953125 162.945312 C 196.714844 166.699219 193.363281 170.578125 189.292969 173.609375 C 184.589844 177.105469 179.042969 179.375 173.238281 180.171875 C 173.207031 180.175781 173.175781 180.175781 173.148438 180.175781 " fill-opacity="1" fill-rule="nonzero"/></g><g clip-path="url(#3654b9ff2a)"><path fill="#000000" d="M 148.847656 205.433594 C 148.503906 205.433594 148.214844 205.171875 148.191406 204.828125 C 147.71875 198.746094 149.796875 193.703125 153.753906 191.339844 C 156.589844 189.648438 159.53125 190.128906 162.386719 190.597656 C 164.914062 191.011719 167.296875 191.402344 169.386719 190.210938 C 169.609375 190.085938 170.128906 189.746094 170.171875 189.3125 C 170.214844 188.910156 169.875 188.550781 169.3125 188.007812 C 168.984375 187.6875 168.644531 187.359375 168.378906 186.960938 C 166.386719 183.886719 171.117188 180.742188 173.140625 179.402344 L 173.3125 179.285156 C 173.613281 179.082031 174.023438 179.164062 174.226562 179.46875 C 174.425781 179.769531 174.347656 180.179688 174.042969 180.382812 L 173.867188 180.496094 C 172.320312 181.527344 168.203125 184.261719 169.488281 186.242188 C 169.664062 186.515625 169.9375 186.78125 170.230469 187.058594 C 170.835938 187.644531 171.589844 188.375 171.484375 189.441406 C 171.410156 190.191406 170.894531 190.871094 170.035156 191.359375 C 167.542969 192.78125 164.820312 192.332031 162.175781 191.898438 C 159.441406 191.445312 156.859375 191.027344 154.429688 192.472656 C 149.214844 195.585938 149.339844 202.636719 149.503906 204.722656 C 149.53125 205.085938 149.261719 205.402344 148.898438 205.433594 C 148.878906 205.433594 148.863281 205.433594 148.847656 205.433594 " fill-opacity="1" fill-rule="nonzero"/></g><g fill="#000000" fill-opacity="1"><g transform="translate(133.036885, 273.586564)"><g><path d="M 7.203125 0.390625 C 7.304688 0.390625 7.398438 0.429688 7.484375 0.515625 C 7.578125 0.609375 7.625 0.710938 7.625 0.828125 C 7.625 0.992188 7.519531 1.15625 7.3125 1.3125 C 7.101562 1.46875 6.847656 1.59375 6.546875 1.6875 C 6.253906 1.789062 5.988281 1.84375 5.75 1.84375 C 5.351562 1.84375 5.03125 1.800781 4.78125 1.71875 C 4.53125 1.644531 4.273438 1.53125 4.015625 1.375 C 3.816406 1.269531 3.648438 1.191406 3.515625 1.140625 C 3.390625 1.085938 3.238281 1.0625 3.0625 1.0625 C 2.976562 1.0625 2.898438 1.070312 2.828125 1.09375 C 2.765625 1.125 2.703125 1.15625 2.640625 1.1875 C 2.484375 1.257812 2.335938 1.296875 2.203125 1.296875 C 2.078125 1.296875 1.972656 1.25 1.890625 1.15625 C 1.804688 1.0625 1.765625 0.957031 1.765625 0.84375 C 1.765625 0.644531 1.847656 0.515625 2.015625 0.453125 L 3.109375 0.046875 C 2.585938 -0.046875 2.117188 -0.253906 1.703125 -0.578125 C 1.296875 -0.898438 0.976562 -1.304688 0.75 -1.796875 C 0.53125 -2.285156 0.421875 -2.820312 0.421875 -3.40625 C 0.421875 -4.0625 0.5625 -4.65625 0.84375 -5.1875 C 1.125 -5.71875 1.515625 -6.132812 2.015625 -6.4375 C 2.515625 -6.75 3.078125 -6.90625 3.703125 -6.90625 C 4.328125 -6.90625 4.890625 -6.75 5.390625 -6.4375 C 5.890625 -6.132812 6.28125 -5.71875 6.5625 -5.1875 C 6.84375 -4.65625 6.984375 -4.0625 6.984375 -3.40625 C 6.984375 -2.832031 6.875 -2.304688 6.65625 -1.828125 C 6.445312 -1.347656 6.144531 -0.945312 5.75 -0.625 C 5.363281 -0.300781 4.914062 -0.0859375 4.40625 0.015625 L 3.671875 0.296875 C 3.835938 0.316406 3.984375 0.351562 4.109375 0.40625 C 4.242188 0.457031 4.40625 0.53125 4.59375 0.625 C 4.832031 0.75 5.035156 0.835938 5.203125 0.890625 C 5.378906 0.953125 5.578125 0.984375 5.796875 0.984375 C 5.984375 0.984375 6.144531 0.957031 6.28125 0.90625 C 6.414062 0.851562 6.546875 0.785156 6.671875 0.703125 C 6.722656 0.660156 6.78125 0.609375 6.84375 0.546875 C 6.914062 0.492188 6.976562 0.453125 7.03125 0.421875 C 7.082031 0.398438 7.140625 0.390625 7.203125 0.390625 Z M 1.421875 -3.40625 C 1.421875 -2.914062 1.515625 -2.472656 1.703125 -2.078125 C 1.898438 -1.691406 2.171875 -1.382812 2.515625 -1.15625 C 2.867188 -0.9375 3.265625 -0.828125 3.703125 -0.828125 C 4.140625 -0.828125 4.53125 -0.9375 4.875 -1.15625 C 5.226562 -1.382812 5.5 -1.691406 5.6875 -2.078125 C 5.882812 -2.472656 5.984375 -2.914062 5.984375 -3.40625 C 5.984375 -3.882812 5.882812 -4.320312 5.6875 -4.71875 C 5.5 -5.113281 5.226562 -5.421875 4.875 -5.640625 C 4.53125 -5.867188 4.140625 -5.984375 3.703125 -5.984375 C 3.265625 -5.984375 2.867188 -5.867188 2.515625 -5.640625 C 2.171875 -5.421875 1.898438 -5.113281 1.703125 -4.71875 C 1.515625 -4.332031 1.421875 -3.894531 1.421875 -3.40625 Z M 1.421875 -3.40625 "/></g></g></g><g fill="#000000" fill-opacity="1"><g transform="translate(148.216219, 273.586564)"><g><path d="M 6.03125 -0.609375 C 6.050781 -0.546875 6.0625 -0.484375 6.0625 -0.421875 C 6.0625 -0.285156 6.015625 -0.175781 5.921875 -0.09375 C 5.835938 -0.0078125 5.738281 0.03125 5.625 0.03125 C 5.53125 0.03125 5.445312 0.00390625 5.375 -0.046875 C 5.300781 -0.109375 5.242188 -0.1875 5.203125 -0.28125 L 4.59375 -1.703125 L 1.59375 -1.703125 L 1 -0.265625 C 0.96875 -0.171875 0.914062 -0.0976562 0.84375 -0.046875 C 0.769531 0.00390625 0.6875 0.03125 0.59375 0.03125 C 0.457031 0.03125 0.351562 -0.00390625 0.28125 -0.078125 C 0.207031 -0.148438 0.171875 -0.25 0.171875 -0.375 C 0.171875 -0.394531 0.175781 -0.445312 0.1875 -0.53125 L 2.671875 -6.53125 C 2.710938 -6.632812 2.773438 -6.710938 2.859375 -6.765625 C 2.941406 -6.828125 3.035156 -6.847656 3.140625 -6.828125 C 3.234375 -6.828125 3.316406 -6.800781 3.390625 -6.75 C 3.472656 -6.695312 3.53125 -6.625 3.5625 -6.53125 Z M 1.96875 -2.59375 L 4.234375 -2.59375 L 3.09375 -5.3125 Z M 1.96875 -2.59375 "/></g></g></g></svg>